<?xml version="1.0" encoding="utf-8"?>
<!-- Generator: Adobe Illustrator 17.0.0, SVG Export Plug-In . SVG Version: 6.00 Build 0)  -->
<!DOCTYPE svg PUBLIC "-//W3C//DTD SVG 1.1//EN" "http://www.w3.org/Graphics/SVG/1.1/DTD/svg11.dtd">
<svg version="1.1" id="Capa_1" xmlns="http://www.w3.org/2000/svg" xmlns:xlink="http://www.w3.org/1999/xlink" x="0px" y="0px"
	 width="914px" height="909.5px" viewBox="142.5 -9.5 914 909.5" enable-background="new 142.5 -9.5 914 909.5"
	 xml:space="preserve">
<circle fill="#0060DB" stroke="#000000" stroke-miterlimit="10" cx="599.056" cy="450" r="446.379"/>
<g display="none">
	<g display="inline">
		<g id="Guides_For_Artboard_3_">
		</g>
		<g id="Artwork_3_">
		</g>
		<g id="Layer_2_3_">
			<g>
				<path fill="#664B3A" d="M766.738,537.805c7.6,4.517,16.135,9.898,24.407,16.357c10.777,3.797,22.741,9.18,36.489,16.799
					c2.085,1.156,4.256,2.251,6.461,3.329c0.307-2.279,0.397-4.512,0.277-6.646c-0.762-13.385-8.426-8.339-10.439-7.212
					c-3.655,2.045-8.015,0.361-11.193-3.523c13.341-6.945,20.861-20.651,20.869-31.742c0.008-10.078-6.298-6.631-8.273-5.83
					c-10.023,4.054-19.704-15.935-5.885-30.885c7.519-7.244,3.712-12.34,1.458-14.872c-2.56-2.877-5.35-5.491-8.032-7.642
					c-0.789,1.505-1.404,2.849-2.161,4.027C805.217,497.143,788.64,523.813,766.738,537.805z"/>
				<path fill="#664B3A" d="M703.312,539.163c-0.094-0.056-0.185-0.113-0.279-0.169c-0.018,2.412-0.048,5.153-0.007,8.11
					c0.095-0.014,0.19-0.026,0.285-0.041L703.312,539.163L703.312,539.163z"/>
				<path fill="#664B3A" d="M677.069,553.462c7.549-6.653,18.394-11.029,25.965-14.467c-19.702-12.664-37.166-36.966-43.998-61.239
					c-1.94-1.649-3.809-4.96-5.792-10.437c-2.085,1.806-4.292,4.006-6.299,6.261c-2.255,2.533-6.063,7.629,1.456,14.872
					c13.82,14.951,4.138,34.94-5.885,30.885c-1.976-0.801-8.281-4.247-8.273,5.83c0.01,11.091,7.528,24.797,20.869,31.742
					c-3.178,3.884-7.536,5.567-11.191,3.523c-2.014-1.127-9.679-6.173-10.439,7.212c-0.108,1.891-0.046,3.862,0.183,5.872
					c1.665-0.83,3.303-1.676,4.892-2.556C653.169,562.862,665.772,557.286,677.069,553.462z"/>
				<path fill="#DEC8AE" d="M733.515,638.838c0.042-0.086,0.082-0.173,0.125-0.258c-0.039-0.057-0.078-0.112-0.117-0.17
					C733.518,638.554,733.515,638.699,733.515,638.838z"/>
				<path fill="#DEC8AE" d="M703.027,547.105c0.033,2.387,0.114,4.914,0.285,7.525v-7.565
					C703.218,547.078,703.123,547.09,703.027,547.105z"/>
				<path fill="#F7F1E6" d="M733.394,630.847c0.138,1.635,0.234,3.332,0.282,5.1C733.793,634.262,733.858,632.483,733.394,630.847z"
					/>
				<path fill="#F7F1E6" d="M733.714,638.426c0,0.09,0.003,0.175,0.003,0.266c0-0.094,0.003-0.184,0.003-0.278
					C733.717,638.417,733.715,638.422,733.714,638.426z"/>
				<path fill="#F7F1E6" d="M834.095,574.29c-2.205-1.077-4.376-2.172-6.461-3.329c-13.747-7.62-25.712-13.002-36.489-16.799
					c8.723,7.855,15.686,16.97,17.061,25.313c-8.898-6.495-15.363-10.727-36.042-10.907c4.966,5.415,11.927,19.46,14.637,32.213
					c-12.838,0.026-33.84,9.321-53.084,37.909c-0.025-0.038-0.052-0.074-0.077-0.111c-0.042,0.085-0.082,0.172-0.125,0.258
					c0-0.139,0.004-0.283,0.008-0.428c-19.193-28.364-40.099-37.602-52.893-37.628c2.708-12.754,9.669-26.798,14.635-32.213
					c-20.678,0.179-27.143,4.412-36.041,10.907c1.417-8.593,8.76-18.005,17.846-26.014c-11.297,3.824-23.9,9.401-38.512,17.5
					c-1.589,0.881-3.227,1.725-4.892,2.556c-17.192,8.566-37.326,15.358-37.326,39.643c0,14.831,0,37.633,0,54.932
					c0,13.77,14.053,24.051,33.853,24.051c30.81,0,75.531,0,102.904-0.001c27.373,0.001,72.093,0.001,102.902,0.001
					c19.802,0,33.853-10.281,33.853-24.051c0-17.298,0-40.1,0-54.932C869.851,589.61,850.917,582.51,834.095,574.29z
					 M823.226,658.15c0,2.506-2.031,4.539-4.539,4.539h-7.203v7.204c0,2.508-2.031,4.541-4.539,4.541h-2.621h-0.413
					c-2.507,0-4.539-2.032-4.539-4.541v-7.204h-7.205c-2.503,0-4.537-2.032-4.537-4.539v-3.033c0-2.506,2.034-4.539,4.537-4.539
					h7.205v-7.203c0-2.507,2.031-4.539,4.539-4.539h0.413h2.621c2.507,0,4.539,2.031,4.539,4.539v7.203h7.203
					c2.507,0,4.539,2.032,4.539,4.539V658.15z"/>
				<path fill="#DEC8AE" d="M764.399,539.244c-9.391,5.52-19.691,8.729-30.473,8.729c-10.834,0-21.185-3.24-30.613-8.81v7.9v7.565
					c0.506,7.704,1.812,16.123,5.072,23.761c1.38,3.233,3.106,6.326,5.273,9.165c10.501,13.753,18.122,24.292,19.735,43.291
					c0.465,1.637,0.4,3.416,0.282,5.1c0.022,0.812,0.035,1.637,0.038,2.479c0.002-0.004,0.004-0.008,0.005-0.012
					c0.063-23.978,8.233-35.379,20.052-50.858c2.299-3.01,4.1-6.307,5.519-9.752C764.724,564.606,764.475,549.209,764.399,539.244z"
					/>
				<path fill="#D8C1A9" d="M703.034,538.995c0.093,0.056,0.184,0.113,0.279,0.169c9.428,5.57,19.778,8.81,30.613,8.81
					c10.782,0,21.082-3.21,30.473-8.729c1.016-0.594,1.29-0.778,2.339-1.439c21.904-13.993,38.48-40.559,43.978-67.736
					c-7.432,11.568-13.143,7.404-14.317-11.174c-0.782-12.354-7.848-26.793-21.682-36.955c2.318,5.846,3.904,12.352,4.598,19.516
					c0.482,4.973-1.177,15.585-14.778,14.42c-30.875-4.644-58.038-18.94-73.065-34.651c-15.673,11.551-20.84,28.475-20.561,38.156
					c0.312,10.843-5.293,24.134-11.875,18.538c6.833,24.273,22.2,47.11,41.902,59.774
					C701.587,538.137,701.776,538.326,703.034,538.995z"/>
				<path fill="#FFFFFF" d="M733.676,635.947c-0.048-1.768-0.143-3.465-0.282-5.1c-1.613-18.998-9.235-29.537-19.735-43.291
					c-2.167-2.839-3.893-5.932-5.273-9.165c-3.26-7.639-4.567-16.059-5.072-23.761c-0.171-2.612,0.033-4.987,0-7.374
					c-0.041-2.957-0.018-3.164,0-5.576c0.005-0.773,0-1.982,0-2.685c-1.351-0.606-0.905-0.503-1.952-1.122
					c-7.571,3.438-16.742,8.936-24.29,15.589c-9.087,8.008-16.429,17.421-17.846,26.014c8.898-6.495,15.363-10.727,36.041-10.907
					c-4.966,5.415-11.926,19.46-14.635,32.213c12.794,0.026,33.701,9.264,52.893,37.628c0.039,0.057,0.078,0.112,0.117,0.17
					c0.025,0.037,0.052,0.073,0.077,0.111c0-0.09-0.003-0.175-0.003-0.266C733.711,637.583,733.698,636.759,733.676,635.947z"/>
				<path fill="#FFFFFF" d="M764.399,539.244c0.076,9.965,0.325,25.362-5.109,38.56c-1.418,3.445-3.22,6.742-5.519,9.752
					c-11.818,15.479-19.989,26.88-20.052,50.858c0,0.094-0.003,0.184-0.003,0.278c19.244-28.589,40.246-37.883,53.084-37.909
					c-2.709-12.754-9.67-26.798-14.637-32.213c20.679,0.179,27.144,4.412,36.042,10.907c-1.375-8.344-8.339-17.459-17.061-25.313
					c-7.642-6.881-24.407-16.357-24.407-16.357S765.34,538.702,764.399,539.244z"/>
				<path fill="#664B3A" d="M659.036,477.919c6.582,5.596,12.187-7.696,11.875-18.538c-0.279-9.681,4.888-26.605,20.561-38.156
					c15.027,15.711,42.189,30.008,73.065,34.651c13.602,1.165,15.26-9.447,14.778-14.42c-0.695-7.164-2.28-13.669-4.598-19.516
					c13.834,10.163,20.898,24.602,21.682,36.955c1.174,18.58,6.884,22.742,14.317,11.174c0.757-1.178,1.529-2.512,2.319-4.017
					c0.524-0.998,1.053-2.06,1.588-3.203c6.068-12.954-1.56-53.971-26.129-80.8c-3.666,6.676-10.582,11.361-20.908,11.361h-31.901
					h-31.901c-12.642,0-20.178-7.016-22.889-16.119c-0.063-0.213-0.132-0.441-0.2-0.669c-26.465,22.196-36.244,58.909-30.116,82.617
					c0.823,3.184,1.664,5.918,2.511,8.259C655.073,472.973,657.098,476.269,659.036,477.919z"/>
				<path fill="#F7F1E6" d="M703.782,393.41h31.901h31.902c10.326,0,17.242-4.684,20.908-11.361c0.822-1.497,1.485-3.092,1.98-4.759
					c2.711-9.103,9.078-30.599,9.078-30.599c3.646-10.844-2.4-23.935-15.041-23.935h-48.828h-48.828
					c-12.64,0-18.687,13.091-15.042,23.935c0,0,6.07,20.49,8.88,29.93c0.068,0.228,0.136,0.456,0.2,0.669
					C683.604,386.394,691.138,393.41,703.782,393.41z M717.886,356.564c0-2.506,2.033-4.538,4.537-4.538h7.205v-7.203
					c0-2.507,2.031-4.539,4.539-4.539h0.412h2.622c2.506,0,4.538,2.031,4.538,4.539v7.203h7.204c2.506,0,4.539,2.032,4.539,4.538
					v3.035c0,2.506-2.032,4.539-4.539,4.539h-7.204v7.203c0,2.507-2.031,4.54-4.538,4.54h-2.622h-0.412
					c-2.507,0-4.539-2.033-4.539-4.54v-7.203h-7.205c-2.504,0-4.537-2.032-4.537-4.539V356.564z"/>
				<path fill="#E74424" d="M722.423,364.138h7.205v7.203c0,2.507,2.031,4.54,4.539,4.54h0.412h2.622
					c2.506,0,4.538-2.033,4.538-4.54v-7.203h7.204c2.506,0,4.539-2.032,4.539-4.539v-3.035c0-2.506-2.032-4.538-4.539-4.538h-7.204
					v-7.203c0-2.507-2.031-4.539-4.538-4.539h-2.622h-0.412c-2.507,0-4.539,2.031-4.539,4.539v7.203h-7.205
					c-2.504,0-4.537,2.032-4.537,4.538v3.035C717.886,362.106,719.919,364.138,722.423,364.138z"/>
				<path fill="#E74424" d="M818.687,650.578h-7.203v-7.203c0-2.507-2.031-4.539-4.539-4.539h-2.621h-0.413
					c-2.507,0-4.539,2.031-4.539,4.539v7.203h-7.205c-2.503,0-4.537,2.032-4.537,4.539v3.033c0,2.506,2.034,4.539,4.537,4.539h7.205
					v7.204c0,2.508,2.031,4.54,4.539,4.54h0.413h2.621c2.507,0,4.539-2.032,4.539-4.54v-7.204h7.203
					c2.507,0,4.539-2.032,4.539-4.539v-3.033C823.226,652.61,821.194,650.578,818.687,650.578z"/>
			</g>
		</g>
	</g>
	<g display="inline">
		<g>
			<g id="Guides_For_Artboard_1_">
			</g>
			<g id="Artwork_1_">
			</g>
			<g id="Layer_2_1_">
				<g>
					<path fill="none" d="M550.988,519.683l6.032,5.979c0,0,0.317,3.084,0.777,7.784c9.808,2.99,20.265,6.863,31.609,11.888
						c-1.894-4.929-4.376-9.207-7.608-12.28C572.638,524.349,568.864,522.527,550.988,519.683z"/>
					<path fill="#F7F1E6" d="M448.909,584.139c0.299,0.234,0.594,0.475,0.888,0.716l-11.756-27.201
						c-3.878,2.823-7.206,5.23-9.585,6.92C440.349,570.107,447.789,578.923,448.909,584.139z"/>
					<path fill="#F7F1E6" d="M406.216,558.779c0.763-9.316,1.734-19.517,2.381-26.101c-1.54,0.45-3.095,0.921-4.67,1.416
						c0.208,2.44,0.72,5.496,1.107,9.325C405.472,547.746,405.984,552.866,406.216,558.779z"/>
					<path fill="#F7F1E6" stroke="#99A1AA" stroke-width="3" stroke-miterlimit="10" d="M622.074,561.698
						c-7.414-4.109-14.467-7.765-21.226-11.045c3.268,11.724,4.696,24.152,4.49,32.868c-0.003,0.118-0.004,0.231-0.007,0.349
						c15.747,4.671,27.24,19.242,27.24,36.506c0,21.031-17.051,38.081-38.08,38.081c-21.032,0-38.081-17.051-38.081-38.081
						s17.049-38.08,38.081-38.08c0.067,0,0.132,0.004,0.2,0.004c0.191-11.635-1.046-25.94-5.282-36.968
						c-11.344-5.023-21.801-8.897-31.609-11.887c0.695,7.103,1.719,17.905,2.474,27.4c1.255,15.776-12.529,10.264-19.101,6.019
						c-0.935-0.604-3.091-2.127-6.021-4.234l-49.404,105.406l-17.951-41.539c-0.432,0.694-0.959,1.317-1.565,1.851
						c0.108,1.675,0.169,3.366,0.169,5.074c0,13.808-3.501,26.896-9.864,36.844c-3.696,5.784-8.24,10.208-13.357,13.138
						c0.03,0.305,0.05,0.612,0.05,0.925c0,4.714-3.625,8.536-8.094,8.536c-4.469,0-12.135-3.821-12.135-8.536
						c0-4.717,7.668-8.535,12.135-8.535c1.607,0,3.1,0.5,4.358,1.351c13.001-7.152,19.906-25.875,19.906-43.725
						c0-1.126-0.036-2.24-0.087-3.35c-3.135-0.776-5.642-3.515-6.091-7.083c-2.809-22.423-20.348-35.167-48.07-34.963
						c-0.017,0-0.039,0-0.058,0c-0.051,0-0.091-0.007-0.14-0.007c-25.527,0.942-41.61,13.517-44.288,34.899
						c-0.446,3.567-2.954,6.307-6.087,7.083c-0.051,1.108-0.087,2.222-0.087,3.346c0,17.851,6.902,36.573,19.899,43.725
						c1.261-0.852,2.754-1.353,4.361-1.353c4.47,0,12.141,3.822,12.141,8.539c0,4.711-7.671,8.536-12.141,8.536
						c-4.469,0-8.096-3.824-8.096-8.536c0-0.314,0.019-0.623,0.05-0.93c-5.116-2.93-9.66-7.352-13.357-13.134
						c-6.361-9.952-9.862-23.038-9.862-36.848c0-1.707,0.061-3.398,0.169-5.073c-2.03-1.787-3.178-4.591-2.807-7.557
						c1.757-14.011,7.885-25.992,17.729-34.669c-0.058-0.193-0.09-0.4-0.09-0.628c0-6.355,12.762-20.989,33.109-24.881
						c-0.186-6.095-0.704-11.336-1.179-16.055c-0.251-2.482-0.482-4.79-0.632-6.952c-15.434,5.584-32.511,13.356-52.008,24.162
						c-26.675,14.781-62.586,23.067-62.586,62.557c0,21.988,0,55.789,0,81.432c0,20.411,20.831,35.653,50.185,35.653
						c45.674,0,111.969,0,152.548,0s106.874,0,152.548,0c29.354,0,50.185-15.241,50.185-35.653c0-25.644,0-59.446,0-81.432
						C684.659,584.765,648.747,576.479,622.074,561.698z"/>
					<path fill="#FFFFFF" d="M483.191,524.477c-0.022,0-0.044,0.001-0.066,0.001c-0.022,0.017-0.05,0.037-0.08,0.06
						c-1.718,1.272-28.295,20.949-45.004,33.115l11.756,27.201c0.47,0.384,0.941,0.766,1.398,1.166
						c9.911,8.682,16.082,20.702,17.842,34.768c0.26,2.081-0.23,4.083-1.241,5.71l17.951,41.539l49.404-105.406
						c-14.824-10.663-49.893-36.625-51.875-38.094C483.241,524.514,483.212,524.493,483.191,524.477z"/>
					<path fill="#DEC8AE" d="M483.045,524.385l0.115,0.068l0.115-0.068l45.13-27.09l0.14,0.139v-22.567
						c-13.977,8.257-29.322,13.061-45.383,13.061c-16.061,0-31.405-4.804-45.383-13.061v22.567l0.139-0.137L483.045,524.385z"/>
					<path fill="#DEC8AE" d="M483.16,524.453c0,0-0.014,0.01-0.035,0.026c0.022,0,0.044-0.001,0.067-0.001
						C483.173,524.463,483.16,524.453,483.16,524.453z"/>
					<path fill="#D8C1A9" d="M528.543,474.865c33.242-19.638,58.748-58.813,67.797-99.36c-2.032-4.436-4.314-11.713-6.975-21.948
						c-0.472,2.865-0.751,5.365-0.687,7.259c0.46,13.579-10.541,28.438-10.675-0.387c-0.112-24.896-42.007-83.296-44.634-84.86
						c-13.597,10.997-48.978,31.469-75.886,37.626c-4.559,1.043-12.257,0.443-6.798-4.163c4.703-3.969,7.06-9.182,8.759-14.449
						c1.942-6.018-23.479,15.647-42.168,25.454c-4.749,2.491-14.648,6.762-7.259-2.043c4.472-5.328,4.865-9.099,5.158-13.27
						c-26.572,14.532-26.116,34.345-26.076,56.977c0.032,19.763-10.688,25.731-11.947,8.287c-1.482,6.938-3.318,11.35-5.245,13.262
						c10.407,37.724,34.75,73.229,65.87,91.613c13.977,8.257,29.32,13.061,45.383,13.061S514.566,483.122,528.543,474.865z"/>
					<path fill="#2B3237" d="M581.796,533.053c3.232,3.073,5.714,7.352,7.608,12.28c4.236,11.026,5.473,25.332,5.282,36.968
						c3.696,0.019,7.266,0.569,10.642,1.57c0.003-0.118,0.004-0.231,0.007-0.349c0.206-8.716-1.221-21.144-4.49-32.868
						c-3.548-12.726-9.264-24.621-17.436-30.039c-15.672-10.389-33.964-9.985-42.985-11.401l10.563,10.472
						C568.864,522.527,572.638,524.349,581.796,533.053z"/>
					<path fill="#664B3A" d="M377.151,369.989c1.259,17.444,11.979,11.476,11.947-8.287c-0.039-22.631-0.495-42.445,26.076-56.977
						c-0.292,4.171-0.687,7.942-5.158,13.27c-7.389,8.805,2.512,4.534,7.259,2.043c18.689-9.807,44.112-31.471,42.168-25.454
						c-1.7,5.267-4.056,10.48-8.759,14.449c-5.46,4.606,2.239,5.206,6.798,4.163c26.907-6.156,62.289-26.629,75.886-37.626
						c2.627,1.564,44.522,59.964,44.634,84.86c0.133,28.825,11.134,13.966,10.675,0.387c-0.064-1.894,0.215-4.394,0.687-7.259
						c2.661,10.235,4.941,17.512,6.975,21.948c5.005,10.923,8.499,4.526,12.404-18.029c2.341-13.521,1.927-47.966-10.786-79.162
						c-6.844-16.793-16.839-33.075-30.03-46.576c-0.337,1.133-0.655,2.199-0.942,3.163c-4.02,13.494-15.19,23.894-33.931,23.894
						h-47.291H438.47c-18.741,0-29.911-10.4-33.931-23.894c-0.767-2.574-1.732-5.821-2.79-9.384
						c-12.347,10.264-22.053,22.911-28.906,37.213c-14.457,30.171-14.171,71.555-13.018,87.856
						c1.877,26.547,7.266,37.444,12.083,32.666C373.834,381.34,375.669,376.928,377.151,369.989z"/>
					<path fill="#F7F1E6" d="M438.47,258.795h47.294h47.292c18.741,0,29.911-10.4,33.931-23.894c0.287-0.964,0.605-2.03,0.942-3.163
						c4.382-14.73,12.519-42.2,12.519-42.2c5.4-16.077-3.563-35.481-22.301-35.481h-72.383h-72.385
						c-18.739,0-27.702,19.404-22.3,35.481c0,0,6.18,20.866,10.67,35.978c1.058,3.563,2.023,6.81,2.79,9.384
						C408.56,248.394,419.731,258.795,438.47,258.795z M466.108,197.449h10.68v-10.678c0-3.717,3.013-6.727,6.727-6.727h0.612h3.886
						c3.717,0,6.727,3.01,6.727,6.727v10.678h10.68c3.717,0,6.727,3.012,6.727,6.726v4.5c0,3.715-3.01,6.726-6.727,6.726h-10.68
						v10.678c0,3.717-3.01,6.729-6.727,6.729h-3.886h-0.612c-3.715,0-6.727-3.013-6.727-6.729V215.4h-10.68
						c-3.714,0-6.726-3.012-6.726-6.726v-4.5C459.38,200.46,462.394,197.449,466.108,197.449z"/>
					<path fill="#E74424" d="M459.38,208.675c0,3.715,3.013,6.726,6.726,6.726h10.68v10.678c0,3.717,3.013,6.729,6.727,6.729h0.612
						h3.886c3.717,0,6.727-3.013,6.727-6.729v-10.678h10.68c3.717,0,6.727-3.012,6.727-6.726v-4.5c0-3.714-3.01-6.726-6.727-6.726
						h-10.68v-10.678c0-3.717-3.01-6.727-6.727-6.727h-3.886h-0.612c-3.715,0-6.727,3.01-6.727,6.727v10.678h-10.68
						c-3.714,0-6.726,3.012-6.726,6.726V208.675L459.38,208.675z"/>
					<path fill="#E0DCD3" d="M594.489,581.948c-21.223,0-38.428,17.204-38.428,38.426s17.204,38.428,38.428,38.428
						c21.222,0,38.426-17.204,38.426-38.428c0-17.421-11.597-32.124-27.486-36.837c-3.407-1.01-7.01-1.564-10.739-1.585
						C594.622,581.954,594.555,581.948,594.489,581.948z M625.977,620.376c0,17.393-14.097,31.493-31.489,31.493
						c-17.396,0-31.493-14.1-31.493-31.493c0-17.393,14.097-31.493,31.493-31.493C611.88,588.883,625.977,602.983,625.977,620.376z"
						/>
					<path fill="#2B3237" d="M563.049,620.376c0,17.364,14.074,31.44,31.44,31.44c17.362,0,31.436-14.076,31.436-31.44
						c0-17.364-14.074-31.44-31.436-31.44C577.122,588.936,563.049,603.012,563.049,620.376z M609.381,620.376
						c0,8.225-6.67,14.892-14.892,14.892c-8.226,0-14.894-6.668-14.894-14.892c0-8.226,6.668-14.892,14.894-14.892
						C602.711,605.482,609.381,612.15,609.381,620.376z"/>
					<circle fill="#1B2327" cx="594.487" cy="620.376" r="14.898"/>
					<path fill="#2B3237" d="M351.717,630.162c-1.556-0.216-2.941-0.898-4.062-1.884c-0.108,1.675-0.169,3.365-0.169,5.073
						c0,13.81,3.501,26.896,9.862,36.848c3.696,5.782,8.24,10.204,13.357,13.134c0.27-2.629,1.675-4.897,3.684-6.258
						c-12.997-7.154-19.899-25.875-19.899-43.725c0-1.125,0.036-2.237,0.087-3.346C353.665,630.23,352.702,630.298,351.717,630.162z
						"/>
					<path fill="#2B3237" d="M459.31,630.073c0.051,1.11,0.087,2.224,0.087,3.35c0,17.85-6.904,36.573-19.906,43.725
						c2.012,1.359,3.416,3.627,3.686,6.259c5.116-2.93,9.661-7.355,13.357-13.138c6.361-9.949,9.864-23.037,9.864-36.844
						c0-1.708-0.061-3.398-0.169-5.074c-1.119,0.985-2.503,1.665-4.055,1.881C461.187,630.367,460.223,630.299,459.31,630.073z"/>
					<path fill="#E6A123" d="M370.705,683.332c-0.03,0.306-0.05,0.615-0.05,0.93c0,4.712,3.627,8.536,8.096,8.536
						c4.47,0,12.141-3.824,12.141-8.536c0-4.717-7.671-8.539-12.141-8.539c-1.607,0-3.102,0.5-4.361,1.353
						C372.38,678.435,370.976,680.702,370.705,683.332z"/>
					<path fill="#E6A123" d="M439.491,677.147c-1.259-0.851-2.753-1.351-4.358-1.351c-4.469,0-12.135,3.818-12.135,8.535
						c0,4.714,7.668,8.536,12.135,8.536c4.469,0,8.094-3.821,8.094-8.536c0-0.313-0.018-0.622-0.05-0.925
						C442.907,680.774,441.501,678.506,439.491,677.147z"/>
					<path fill="#E0DCD3" d="M406.151,559.578c9.725,2.21,7.82,0.997,22.305,4.994c2.379-1.69,5.708-4.096,9.585-6.92
						c16.708-12.167,43.286-31.843,45.004-33.115c0.029-0.022,0.058-0.043,0.08-0.06c0.021-0.015,0.035-0.026,0.035-0.026
						l-0.115-0.068l-45.268-27.231l0,0l-28.477,28.51c0,0-0.283,2.749-0.702,7.015c-0.647,6.584-1.618,16.785-2.381,26.101
						C406.193,559.046,406.171,559.312,406.151,559.578z"/>
					<path fill="#E0DCD3" d="M483.275,524.385l-0.115,0.068c0,0,0.014,0.01,0.032,0.024c0.022,0.017,0.051,0.037,0.083,0.061
						c1.982,1.467,37.051,27.43,51.875,38.094c2.93,2.107,5.086,3.63,6.021,4.234c6.572,4.245,20.356,9.757,19.101-6.019
						c-0.755-9.495-1.779-20.298-2.474-27.4c-0.46-4.7-0.777-7.784-0.777-7.784l-6.032-5.979l-10.563-10.472l-11.883-12.016l0,0
						L483.275,524.385z"/>
				</g>
				<path fill="#2B3237" d="M395.597,560.542c3.213-0.614,6.607-0.97,10.177-0.974c0.126,0,0.249,0.007,0.375,0.008
					c0.022-0.265,0.043-0.532,0.065-0.799c-0.231-5.914-0.744-11.033-1.18-15.359c-0.388-3.829-0.899-6.885-1.107-9.325
					c-0.213-2.501-0.107-4.353,0.788-5.702c1.164-1.754,0.452-2.765,4.584-2.731c7.499-7.432,11.511-11.213,11.511-11.213
					c-2.661,0.763-7.146,0.453-9.552,0.421c-4.569-0.025-10.24-0.094-14.696,6.632c-2.904,4.383-3.221,9.53-2.775,16.034
					c0.148,2.161,0.381,4.47,0.632,6.952C394.893,549.208,395.411,554.447,395.597,560.542z"/>
				<path fill="#C3BFB8" d="M408.057,571.126c0.26,0,0.526,0,0.792,0.003c0.526,0,1.039,0.062,1.54,0.17
					c15.578,0.693,28.499,5.001,38.519,12.838c-1.119-5.216-8.559-14.031-20.453-19.566c-5.394-2.179-14.919-5.037-22.305-4.994
					c-0.126-0.001-0.249-0.008-0.375-0.008c-3.57,0.003-6.964,0.359-10.177,0.974c-20.348,3.891-33.109,18.526-33.109,24.88
					c0,0.227,0.032,0.435,0.09,0.628c0.039-0.033,0.073-0.069,0.112-0.103C373.918,576.111,389.179,571.126,408.057,571.126z"/>
				<path fill="#E0DCD3" d="M469.035,620.787c-1.759-14.064-7.931-26.086-17.842-34.768c-0.457-0.4-0.928-0.781-1.398-1.166
					c-0.294-0.241-0.589-0.482-0.888-0.716c-10.02-7.837-22.941-12.145-38.519-12.838c-0.5-0.108-1.013-0.17-1.54-0.17
					c-0.266-0.003-0.532-0.003-0.792-0.003c-18.877,0-34.139,4.984-45.367,14.822c-0.039,0.033-0.073,0.069-0.112,0.103
					c-9.844,8.678-15.974,20.658-17.729,34.669c-0.371,2.966,0.779,5.77,2.807,7.557c1.121,0.986,2.507,1.668,4.062,1.884
					c0.984,0.137,1.948,0.069,2.861-0.158c3.134-0.777,5.641-3.517,6.087-7.083c2.678-21.384,18.76-33.959,44.288-34.899
					c0.048,0,0.089,0.007,0.14,0.007c0.019,0,0.04,0,0.058,0c27.722-0.204,45.259,12.54,48.07,34.963
					c0.449,3.569,2.956,6.307,6.091,7.083c0.914,0.226,1.877,0.294,2.863,0.157c1.552-0.216,2.936-0.895,4.055-1.881
					c0.607-0.533,1.135-1.157,1.565-1.851C468.806,624.87,469.297,622.87,469.035,620.787z"/>
			</g>
		</g>
		<g>
		</g>
		<g>
		</g>
		<g>
		</g>
		<g>
		</g>
		<g>
		</g>
		<g>
		</g>
		<g>
		</g>
		<g>
		</g>
		<g>
		</g>
		<g>
		</g>
		<g>
		</g>
		<g>
		</g>
		<g>
		</g>
		<g>
		</g>
		<g>
		</g>
	</g>
	<g display="inline">
		<path fill="#5A4146" d="M481.174,453.726c-14.06,0-26.633-2.777-33.633-7.429c-3.553-2.362-4.521-7.158-2.159-10.714
			c2.362-3.553,7.156-4.521,10.713-2.159c3.629,2.412,12.791,4.846,25.078,4.846c12.287,0,21.448-2.434,25.077-4.846
			c3.554-2.361,8.35-1.395,10.713,2.16c2.362,3.554,1.396,8.35-2.159,10.713C507.806,450.949,495.234,453.726,481.174,453.726z"/>
	</g>
	<path display="inline" fill="#353640" d="M427.273,364.205c7.302,0,13.971,3.674,13.971,10.977c0,7.302-5.92,13.222-13.222,13.222
		c-7.302,0-13.222-5.92-13.222-13.222C414.8,367.879,419.971,364.205,427.273,364.205z"/>
	<path display="inline" fill="#353640" d="M535.078,364.205c7.302,0,13.971,3.674,13.971,10.977c0,7.302-5.92,13.222-13.222,13.222
		c-7.302,0-13.222-5.92-13.222-13.222C522.604,367.879,527.775,364.205,535.078,364.205z"/>
	<g display="inline">
		<path fill="#5A4146" d="M732.707,519.612c-7.672,0-14.533-1.515-18.352-4.054c-1.939-1.289-2.467-3.906-1.178-5.846
			c1.289-1.939,3.905-2.467,5.846-1.178c1.98,1.316,6.98,2.644,13.684,2.644s11.704-1.328,13.684-2.644
			c1.94-1.288,4.556-0.761,5.846,1.178c1.289,1.94,0.762,4.557-1.178,5.846C747.24,518.097,740.379,519.612,732.707,519.612z"/>
	</g>
	<circle display="inline" fill="#353640" cx="703.295" cy="477.978" r="7.215"/>
	<circle display="inline" fill="#353640" cx="762.121" cy="477.978" r="7.215"/>
</g>
<g display="none">
	<g display="inline">
		<g id="Guides_For_Artboard_2_">
		</g>
		<g id="Artwork_2_">
		</g>
		<g id="Layer_2_2_">
			<g>
				<path fill="#55734C" d="M645.548,274.721c13.026-4.817,27.561-9.75,42.126-12.812c6.22-5.841,11.608-11.781,16.258-17.274
					c30.424-35.401,44.031-76.166,40.439-121.166c-0.462-5.809-5.311-10.286-11.137-10.286h-4.917c-0.491,0-0.982,0.031-1.468,0.099
					c-38.368,5.082-80.324,27.404-104.423,55.554c-19.506,22.876-44.988,59.955-41.079,117.588c0.02,0.302,0.097,0.584,0.141,0.878
					c5.284,1.461,10.621,2.414,15.87,2.443C614.007,289.652,631.54,280.301,645.548,274.721z"/>
				<path fill="#D43D21" d="M798.517,282.367c-25.957-15.951-61.688-29.57-101.452-23.605c-2.56,0.411-5.128,0.91-7.693,1.451
					c-14.565,3.062-29.099,7.995-42.126,12.812c-14.008,5.58-31.54,14.93-48.189,15.025c-5.248-0.031-10.584-0.982-15.869-2.443
					c-11.484-3.173-22.73-8.759-32.32-12.581c-15.323-5.666-32.731-11.516-49.82-14.261c-39.765-5.965-75.495,7.655-101.454,23.605
					c-49.372,30.008-86.283,92.129-89.586,168.317v31.403c7.652,106.504,48.639,189.78,101.609,254.309
					c17.967,21.76,42.594,45.913,73.207,50.418h14.258c37.67-5.305,61.82-24.94,99.976-28.055
					c38.154,3.115,62.304,22.75,99.973,28.055h14.259c30.609-4.503,55.24-28.658,73.207-50.418
					c52.971-64.528,93.957-147.806,101.609-254.309v-31.403C884.801,374.496,847.888,312.375,798.517,282.367z M754.735,494.932
					c-6.76,41.188-55.948,87.482-95.575,124.756c0,0-19.774,19.853-25.709,24.94c-4.452,3.835-14.149,11.543-24.634,11.543
					c-10.502,0-20.175-7.708-24.654-11.543c-5.935-5.087-25.711-24.94-25.711-24.94c-39.624-37.275-88.81-83.55-95.575-124.756
					c-4.741-29.122-0.112-53.136,13.78-71.369c14.013-18.407,35.348-28.911,65.222-32.109c2.891-0.289,5.49-0.425,8.116-0.425
					c21.103,0,42.438,7.864,58.798,21.164c16.384-13.3,37.701-21.164,58.846-21.164c2.599,0,5.221,0.136,8.094,0.425
					c29.874,3.2,51.189,13.702,65.219,32.109C754.852,441.797,759.477,465.811,754.735,494.932z"/>
				<path fill="#F7F1E6" d="M675.736,391.454c-2.871-0.289-5.493-0.425-8.094-0.425c-21.143,0-42.462,7.864-58.846,21.164
					c-16.36-13.3-37.696-21.164-58.799-21.164c-2.626,0-5.225,0.136-8.116,0.425c-29.876,3.2-51.209,13.702-65.222,32.109
					c-13.894,18.232-18.521,42.248-13.78,71.369c6.765,41.207,55.95,87.482,95.575,124.756c0,0,19.776,19.853,25.711,24.94
					c4.479,3.835,14.152,11.543,24.654,11.543c10.485,0,20.182-7.708,24.634-11.543c5.935-5.087,25.709-24.94,25.709-24.94
					c39.625-37.275,88.813-83.568,95.575-124.756c4.742-29.122,0.117-53.136-13.779-71.369
					C726.925,405.156,705.61,394.654,675.736,391.454z"/>
			</g>
		</g>
	</g>
	<g display="inline">
	</g>
	<g display="inline">
	</g>
	<g display="inline">
	</g>
	<g display="inline">
	</g>
	<g display="inline">
	</g>
	<g display="inline">
	</g>
	<g display="inline">
	</g>
	<g display="inline">
	</g>
	<g display="inline">
	</g>
	<g display="inline">
	</g>
	<g display="inline">
	</g>
	<g display="inline">
	</g>
	<g display="inline">
	</g>
	<g display="inline">
	</g>
	<g display="inline">
	</g>
</g>
<g display="none">
	<g display="inline">
		<g id="Guides_For_Artboard_4_">
		</g>
		<g id="Artwork_4_">
		</g>
		<g id="Layer_2_4_">
			<g>
				<path fill="#F7F1E6" d="M833.813,167.825H686.076v78.108c0,8.063-6.535,14.6-14.598,14.6h-140.83
					c-8.063,0-14.598-6.535-14.598-14.6v-78.108H371.561c-27.75,0-50.244,22.494-50.244,50.246v501.387
					c0,27.75,22.494,50.246,50.244,50.246h188.461V652.331c0-5.298,4.295-9.594,9.594-9.594h69.074c5.3,0,9.594,4.295,9.594,9.594
					v117.372h185.53c27.75,0,50.246-22.494,50.246-50.246V218.07C884.06,190.319,861.562,167.825,833.813,167.825z M512.723,602.549
					c0,5.298-4.295,9.594-9.594,9.594h-69.074c-5.3,0-9.594-4.295-9.594-9.594v-69.074c0-5.298,4.295-9.594,9.594-9.594h69.074
					c5.3,0,9.594,4.295,9.594,9.594V602.549z M512.723,484.764c0,5.298-4.295,9.594-9.594,9.594h-69.074
					c-5.3,0-9.594-4.295-9.594-9.594V415.69c0-5.298,4.295-9.594,9.594-9.594h69.074c5.3,0,9.594,4.295,9.594,9.594V484.764z
					 M512.723,365.908c0,5.298-4.295,9.594-9.594,9.594h-69.074c-5.3,0-9.594-4.295-9.594-9.594v-69.074
					c0-5.298,4.295-9.594,9.594-9.594h69.074c5.3,0,9.594,4.295,9.594,9.594V365.908z M648.283,602.549
					c0,5.298-4.295,9.594-9.594,9.594h-69.074c-5.3,0-9.594-4.295-9.594-9.594v-69.074c0-5.298,4.295-9.594,9.594-9.594h69.074
					c5.3,0,9.594,4.295,9.594,9.594V602.549z M648.283,484.764c0,5.298-4.295,9.594-9.594,9.594h-69.074
					c-5.3,0-9.594-4.295-9.594-9.594V415.69c0-5.298,4.295-9.594,9.594-9.594h69.074c5.3,0,9.594,4.295,9.594,9.594V484.764z
					 M648.283,365.908c0,5.298-4.295,9.594-9.594,9.594h-69.074c-5.3,0-9.594-4.295-9.594-9.594v-69.074
					c0-5.298,4.295-9.594,9.594-9.594h69.074c5.3,0,9.594,4.295,9.594,9.594V365.908z M783.843,602.549
					c0,5.298-4.295,9.594-9.594,9.594h-69.074c-5.3,0-9.594-4.295-9.594-9.594v-69.074c0-5.298,4.295-9.594,9.594-9.594h69.074
					c5.3,0,9.594,4.295,9.594,9.594V602.549z M783.843,484.764c0,5.298-4.295,9.594-9.594,9.594h-69.074
					c-5.3,0-9.594-4.295-9.594-9.594V415.69c0-5.298,4.295-9.594,9.594-9.594h69.074c5.3,0,9.594,4.295,9.594,9.594V484.764z
					 M783.843,365.908c0,5.298-4.295,9.594-9.594,9.594h-69.074c-5.3,0-9.594-4.295-9.594-9.594v-69.074
					c0-5.298,4.295-9.594,9.594-9.594h69.074c5.3,0,9.594,4.295,9.594,9.594V365.908z"/>
				<path fill="#81B6B2" d="M503.13,287.24h-69.074c-5.3,0-9.594,4.295-9.594,9.594v69.074c0,5.298,4.295,9.594,9.594,9.594h69.074
					c5.3,0,9.594-4.295,9.594-9.594v-69.074C512.723,291.536,508.428,287.24,503.13,287.24z"/>
				<path fill="#81B6B2" d="M638.687,287.24h-69.074c-5.3,0-9.594,4.295-9.594,9.594v69.074c0,5.298,4.295,9.594,9.594,9.594h69.074
					c5.3,0,9.594-4.295,9.594-9.594v-69.074C648.283,291.536,643.989,287.24,638.687,287.24z"/>
				<path fill="#81B6B2" d="M774.248,287.24h-69.074c-5.3,0-9.594,4.295-9.594,9.594v69.074c0,5.298,4.295,9.594,9.594,9.594h69.074
					c5.3,0,9.594-4.295,9.594-9.594v-69.074C783.843,291.536,779.55,287.24,774.248,287.24z"/>
				<path fill="#81B6B2" d="M503.13,406.096h-69.074c-5.3,0-9.594,4.295-9.594,9.594v69.074c0,5.298,4.295,9.594,9.594,9.594h69.074
					c5.3,0,9.594-4.295,9.594-9.594V415.69C512.723,410.391,508.428,406.096,503.13,406.096z"/>
				<path fill="#81B6B2" d="M638.687,406.096h-69.074c-5.3,0-9.594,4.295-9.594,9.594v69.074c0,5.298,4.295,9.594,9.594,9.594
					h69.074c5.3,0,9.594-4.295,9.594-9.594V415.69C648.283,410.391,643.989,406.096,638.687,406.096z"/>
				<path fill="#81B6B2" d="M774.248,406.096h-69.074c-5.3,0-9.594,4.295-9.594,9.594v69.074c0,5.298,4.295,9.594,9.594,9.594
					h69.074c5.3,0,9.594-4.295,9.594-9.594V415.69C783.843,410.391,779.55,406.096,774.248,406.096z"/>
				<path fill="#81B6B2" d="M503.13,523.882h-69.074c-5.3,0-9.594,4.295-9.594,9.594v69.074c0,5.298,4.295,9.594,9.594,9.594h69.074
					c5.3,0,9.594-4.295,9.594-9.594v-69.074C512.723,528.177,508.428,523.882,503.13,523.882z"/>
				<path fill="#81B6B2" d="M638.687,523.882h-69.074c-5.3,0-9.594,4.295-9.594,9.594v69.074c0,5.298,4.295,9.594,9.594,9.594
					h69.074c5.3,0,9.594-4.295,9.594-9.594v-69.074C648.283,528.177,643.989,523.882,638.687,523.882z"/>
				<path fill="#81B6B2" d="M774.248,523.882h-69.074c-5.3,0-9.594,4.295-9.594,9.594v69.074c0,5.298,4.295,9.594,9.594,9.594
					h69.074c5.3,0,9.594-4.295,9.594-9.594v-69.074C783.843,528.177,779.55,523.882,774.248,523.882z"/>
				<path fill="#81B6B2" d="M638.687,642.736h-69.074c-5.3,0-9.594,4.295-9.594,9.594v117.372v0.95h88.261v-0.95V652.329
					C648.283,647.031,643.989,642.736,638.687,642.736z"/>
				<path fill="#E0DCD3" d="M530.649,260.531h140.83c8.063,0,14.598-6.535,14.598-14.6v-78.106v-56.208
					c0-8.063-6.535-14.6-14.598-14.6h-140.83c-8.063,0-14.598,6.537-14.598,14.6v56.208v78.108
					C516.051,253.995,522.586,260.531,530.649,260.531z M562.294,127.314h21.634c2.763,0,5,2.239,5,5v33.932h24.4v-33.932
					c0-2.761,2.239-5,4.998-5h21.509c2.76,0,5,2.239,5,5v92.924c0,2.761-2.24,5-5,5h-21.509c-2.76,0-4.998-2.239-4.998-5v-32.399
					h-24.4v32.399c0,2.761-2.237,5-5,5h-21.634c-2.76,0-5-2.239-5-5v-92.924C557.294,129.552,559.533,127.314,562.294,127.314z"/>
				<path fill="#E74424" d="M557.294,225.236c0,2.761,2.24,5,5,5h21.634c2.763,0,5-2.239,5-5v-32.399h24.4v32.399
					c0,2.761,2.239,5,4.998,5h21.509c2.76,0,5-2.239,5-5v-92.922c0-2.761-2.24-5-5-5h-21.509c-2.76,0-4.998,2.239-4.998,5v33.932
					h-24.4v-33.932c0-2.761-2.237-5-5-5h-21.634c-2.76,0-5,2.239-5,5V225.236z"/>
			</g>
		</g>
	</g>
	<g display="inline">
	</g>
	<g display="inline">
	</g>
	<g display="inline">
	</g>
	<g display="inline">
	</g>
	<g display="inline">
	</g>
	<g display="inline">
	</g>
	<g display="inline">
	</g>
	<g display="inline">
	</g>
	<g display="inline">
	</g>
	<g display="inline">
	</g>
	<g display="inline">
	</g>
	<g display="inline">
	</g>
	<g display="inline">
	</g>
	<g display="inline">
	</g>
	<g display="inline">
	</g>
</g>
<g>
	<g>
		<path fill="#76CC5B" d="M706.453,653.992c168.121,75.234,368.204-250.754,211.637-472.939
			C648.089,212.352,538.332,578.759,706.453,653.992z"/>
		<path opacity="0.2" enable-background="new    " d="M691.723,615.402c-26.624-11.914-46.273-31.139-59.426-55.174
			c10.259,41.992,34.455,75.998,74.156,93.763c156.241,69.916,340.084-206.688,239.619-424.463
			C1010.475,439.775,838.859,681.245,691.723,615.402z"/>
		<path fill="#599944" d="M895.314,376.936l-57.66,9.146l32.313-72.21c2.33-5.206-0.002-11.314-5.208-13.644
			s-11.314,0.002-13.643,5.208l-32.315,72.213l-31.6-49.09c-3.087-4.794-9.475-6.183-14.271-3.093
			c-4.796,3.088-6.18,9.477-3.095,14.272l38.893,60.42l-30.202,67.492l-31.6-49.09c-3.088-4.796-9.475-6.183-14.272-3.095
			c-4.794,3.087-6.18,9.477-3.093,14.271l38.893,60.42l-30.202,67.492l-31.6-49.09c-3.087-4.794-9.476-6.18-14.271-3.093
			c-4.796,3.088-6.18,9.477-3.094,14.272l38.893,60.419l-71.964,160.815c-2.329,5.206,0.002,11.314,5.208,13.643
			c2.602,1.164,5.431,1.163,7.9,0.221c2.469-0.942,4.579-2.826,5.743-5.428l71.964-160.815L818,577.334
			c0.724-0.114,1.418-0.302,2.075-0.553c4.466-1.705,7.285-6.354,6.506-11.263c-0.893-5.632-6.184-9.475-11.817-8.58l-57.66,9.146
			l30.202-67.492l70.968-11.257c0.724-0.116,1.418-0.302,2.075-0.553c4.466-1.705,7.283-6.353,6.506-11.263
			c-0.893-5.632-6.184-9.474-11.816-8.581l-57.66,9.146l30.202-67.492l70.969-11.256c0.724-0.116,1.418-0.302,2.075-0.553
			c4.466-1.705,7.285-6.354,6.506-11.263C906.236,379.884,900.947,376.042,895.314,376.936z"/>
		<g>
		</g>
		<g>
		</g>
		<g>
		</g>
		<g>
		</g>
		<g>
		</g>
		<g>
		</g>
		<g>
		</g>
		<g>
		</g>
		<g>
		</g>
		<g>
		</g>
		<g>
		</g>
		<g>
		</g>
		<g>
		</g>
		<g>
		</g>
		<g>
		</g>
	</g>
	<g>
		<g>
			<g id="Guides_For_Artboard_5_">
			</g>
			<g id="Artwork_5_">
			</g>
			<g id="Layer_2_5_">
				<g>
					<path fill="#F3DBBD" d="M483.35,629.166l-44.907-119.647l-165.664,62.178l44.907,119.647l0.076-0.029
						c18.253,43.716,67.975,65.488,112.693,48.704s67.836-65.895,52.817-110.824L483.35,629.166z"/>
					<path fill="#E74424" d="M393.537,389.871l-0.076,0.029c-18.253-43.716-67.975-65.488-112.693-48.704
						c-44.718,16.783-67.836,65.895-52.818,110.825l-0.076,0.029l44.908,119.647l165.664-62.178L393.537,389.871z"/>
					<path fill="#F3DBBD" d="M581.642,230.556l-0.076,0.029c-18.253-43.717-67.975-65.488-112.693-48.704
						s-67.836,65.895-52.818,110.825l-0.076,0.029l44.907,119.647l165.664-62.179L581.642,230.556z"/>
					<path fill="#E74424" d="M671.379,469.878l0.078-0.029l-44.908-119.648l-165.664,62.179l44.906,119.648l0.077-0.03
						c18.253,43.716,67.975,65.488,112.693,48.704S686.398,514.809,671.379,469.878z"/>
				</g>
			</g>
		</g>
		<g>
		</g>
		<g>
		</g>
		<g>
		</g>
		<g>
		</g>
		<g>
		</g>
		<g>
		</g>
		<g>
		</g>
		<g>
		</g>
		<g>
		</g>
		<g>
		</g>
		<g>
		</g>
		<g>
		</g>
		<g>
		</g>
		<g>
		</g>
		<g>
		</g>
	</g>
</g>
<g display="none">
	<g display="inline">
		<g>
			<g id="Guides_For_Artboard_6_">
			</g>
			<g id="Artwork_6_">
			</g>
			<g id="Layer_2_6_">
				<g>
					<path fill="#FFFFFF" d="M835.656,199.796c-74.516-86.851-201.453-19.117-219.438-8.838
						c-57.856-39.467-138.67-74.209-203.599-24.668c-46.793,35.563-73.711,81.61-80.07,136.598
						c-9.585,82.846,31.544,163.22,52.908,189.224c10.895,13.156,14.607,77.188,17.397,123.954
						c5.845,99.597,11,185.629,61.864,196.42c13.052,2.776,25.49,0.516,35.961-6.477c27.443-18.293,36.075-64.137,46.045-117.169
						c12.875-68.352,24.683-120.362,55.106-118.305c9.158,0.618,13.055,4.012,15.416,6.885c15.42,18.708,8.738,74.315,3.804,115.015
						c-7.094,58.897-13.246,109.876,25.593,121.181c3.493,1.029,7.812,1.851,12.746,1.851c7.81,0,17.164-2.059,27.443-8.222
						c59.612-35.872,106.586-190.766,124.674-274.329c47.46-36.901,78.424-90.86,85.412-149.239
						C902.259,338.656,895.989,270.205,835.656,199.796L835.656,199.796z"/>
				</g>
			</g>
		</g>
		<g>
		</g>
		<g>
		</g>
		<g>
		</g>
		<g>
		</g>
		<g>
		</g>
		<g>
		</g>
		<g>
		</g>
		<g>
		</g>
		<g>
		</g>
		<g>
		</g>
		<g>
		</g>
		<g>
		</g>
		<g>
		</g>
		<g>
		</g>
		<g>
		</g>
	</g>
	<g display="inline">
		<path opacity="0.8" fill="#D8D5D4" d="M774.69,201.878c0,0,197.266,119.377,0,299.226
			C774.69,501.104,892.698,344.544,774.69,201.878z"/>
		<path opacity="0.8" fill="#D8D5D4" d="M463.403,179.424c0,0-197.266,119.377,0,299.226
			C463.403,478.65,345.395,322.09,463.403,179.424z"/>
	</g>
</g>
</svg>
